REM DIRINDEX 1\2,1\3,1\4,1\5
REM DIRNAME "folder01","folder02","folder03","folder04","folder05"
TITLE ""
FILE "P1Q_t_0639-0648.mp3" MP3
  TRACK 01 AUDIO
    TITLE "3:cjc173_2854"
    INDEX 01 00:00:00
  TRACK 02 AUDIO
    TITLE "0:"
    INDEX 01 00:01:12
  TRACK 03 AUDIO
    TITLE "4:cjc173_2855"
    INDEX 01 00:01:33
  TRACK 04 AUDIO
    TITLE "0:"
    INDEX 01 00:02:50
  TRACK 05 AUDIO
    TITLE "5:cjc173_2856"
    INDEX 01 00:02:72
  TRACK 06 AUDIO
    TITLE "0:"
    INDEX 01 00:07:46
  TRACK 07 AUDIO
    TITLE "3:cjc173_2857"
    INDEX 01 00:08:16
  TRACK 08 AUDIO
    TITLE "0:"
    INDEX 01 00:09:15
  TRACK 09 AUDIO
    TITLE "4:cjc173_2858"
    INDEX 01 00:09:35
  TRACK 10 AUDIO
    TITLE "0:"
    INDEX 01 00:12:08
  TRACK 11 AUDIO
    TITLE "5:cjc173_2859"
    INDEX 01 00:12:27
  TRACK 12 AUDIO
    TITLE "0:"
    INDEX 01 00:17:03
  TRACK 13 AUDIO
    TITLE "3:cjc173_2860"
    INDEX 01 00:17:46
  TRACK 14 AUDIO
    TITLE "0:"
    INDEX 01 00:18:67
  TRACK 15 AUDIO
    TITLE "4:cjc173_2861"
    INDEX 01 00:19:15
  TRACK 16 AUDIO
    TITLE "0:"
    INDEX 01 00:20:31
  TRACK 17 AUDIO
    TITLE "5:cjc173_2862"
    INDEX 01 00:20:52
  TRACK 18 AUDIO
    TITLE "0:"
    INDEX 01 00:24:38
  TRACK 19 AUDIO
    TITLE "3:cjc173_2863"
    INDEX 01 00:25:08
  TRACK 20 AUDIO
    TITLE "0:"
    INDEX 01 00:26:31
  TRACK 21 AUDIO
    TITLE "4:cjc173_2864"
    INDEX 01 00:26:55
  TRACK 22 AUDIO
    TITLE "0:"
    INDEX 01 00:28:65
  TRACK 23 AUDIO
    TITLE "5:cjc173_2865"
    INDEX 01 00:29:12
  TRACK 24 AUDIO
    TITLE "0:"
    INDEX 01 00:33:63
  TRACK 25 AUDIO
    TITLE "3:cjc173_2866"
    INDEX 01 00:34:35
  TRACK 26 AUDIO
    TITLE "0:"
    INDEX 01 00:35:71
  TRACK 27 AUDIO
    TITLE "4:cjc173_2867"
    INDEX 01 00:36:18
  TRACK 28 AUDIO
    TITLE "0:"
    INDEX 01 00:38:46
  TRACK 29 AUDIO
    TITLE "5:cjc173_2868"
    INDEX 01 00:38:66
  TRACK 30 AUDIO
    TITLE "0:"
    INDEX 01 00:43:26
  TRACK 31 AUDIO
    TITLE "3:cjc173_2869"
    INDEX 01 00:43:71
  TRACK 32 AUDIO
    TITLE "0:"
    INDEX 01 00:45:13
  TRACK 33 AUDIO
    TITLE "4:cjc173_2870"
    INDEX 01 00:45:34
  TRACK 34 AUDIO
    TITLE "0:"
    INDEX 01 00:47:49
  TRACK 35 AUDIO
    TITLE "5:cjc173_2871"
    INDEX 01 00:47:71
  TRACK 36 AUDIO
    TITLE "0:"
    INDEX 01 00:53:09
  TRACK 37 AUDIO
    TITLE "3:cjc173_2872"
    INDEX 01 00:53:57
  TRACK 38 AUDIO
    TITLE "0:"
    INDEX 01 00:54:69
  TRACK 39 AUDIO
    TITLE "4:cjc173_2873"
    INDEX 01 00:55:21
  TRACK 40 AUDIO
    TITLE "0:"
    INDEX 01 00:58:43
  TRACK 41 AUDIO
    TITLE "5:cjc173_2874"
    INDEX 01 00:58:63
  TRACK 42 AUDIO
    TITLE "0:"
    INDEX 01 01:04:12
  TRACK 43 AUDIO
    TITLE "3:cjc173_2875"
    INDEX 01 01:04:59
  TRACK 44 AUDIO
    TITLE "0:"
    INDEX 01 01:05:61
  TRACK 45 AUDIO
    TITLE "4:cjc173_2876"
    INDEX 01 01:06:09
  TRACK 46 AUDIO
    TITLE "0:"
    INDEX 01 01:10:48
  TRACK 47 AUDIO
    TITLE "5:cjc173_2877"
    INDEX 01 01:10:68
  TRACK 48 AUDIO
    TITLE "0:"
    INDEX 01 01:15:63
  TRACK 49 AUDIO
    TITLE "3:cjc173_2878"
    INDEX 01 01:16:33
  TRACK 50 AUDIO
    TITLE "0:"
    INDEX 01 01:17:46
  TRACK 51 AUDIO
    TITLE "4:cjc173_2879"
    INDEX 01 01:17:68
  TRACK 52 AUDIO
    TITLE "0:"
    INDEX 01 01:20:49
  TRACK 53 AUDIO
    TITLE "5:cjc173_2880"
    INDEX 01 01:20:66
  TRACK 54 AUDIO
    TITLE "0:"
    INDEX 01 01:25:59
  TRACK 55 AUDIO
    TITLE "3:cjc173_2881"
    INDEX 01 01:26:30
  TRACK 56 AUDIO
    TITLE "0:"
    INDEX 01 01:27:56
  TRACK 57 AUDIO
    TITLE "4:cjc173_2882"
    INDEX 01 01:28:09
  TRACK 58 AUDIO
    TITLE "0:"
    INDEX 01 01:31:01
  TRACK 59 AUDIO
    TITLE "5:cjc173_2883"
    INDEX 01 01:31:21
  TRACK 60 AUDIO
    TITLE "0:"
    INDEX 01 01:36:48
